<svg width="100" height="100" viewBox="0 0 100 100" fill="none" xmlns="http://www.w3.org/2000/svg">
<rect width="100" height="100" />
<path d="M31 43C36.5228 43 41 38.5228 41 33V24C41 19.0294 45.0294 15 50 15V15H58C74.5685 15 88 28.4315 88 45V85H73.1539C67.631 85 63.1538 80.5228 63.1538 75V61.5C63.1538 55.9772 58.6767 51.5 53.1538 51.5H50H46.1484C40.6311 51.5 36.1562 55.9686 36.1484 61.4859L36.1294 75.0141C36.1217 80.5314 31.6468 85 26.1294 85H22C16.4772 85 12 80.5228 12 75V53C12 47.4772 16.4772 43 22 43H31Z" fill="black"/>
<circle cx="22" cy="28" r="10" fill="black"/>
</svg>
